<mxfile host="app.diagrams.net" modified="2024-06-30T09:20:21.956Z" agent="Mozilla/5.0 (Windows NT 10.0; Win64; x64) AppleWebKit/537.36 (KHTML, like Gecko) Chrome/117.0.0.0 Safari/537.36" version="24.6.4" etag="7xA6XrZPpBld8YwxxQuM" type="github">
  <diagram name="페이지-1" id="_bj7Iy-Y-o24KytSjYLC">
    <mxGraphModel>
      <root>
        <mxCell id="0" />
        <mxCell id="1" parent="0" />
      </root>
    </mxGraphModel>
  </diagram>
</mxfile>
